<svg width="22" height="22" viewBox="0 0 22 22" fill="none" xmlns="http://www.w3.org/2000/svg">
<path id="&#244;&#128;&#138;&#171;" fill-rule="evenodd" clip-rule="evenodd" d="M20.875 21.4141C20.6562 21.5391 20.4062 21.6016 20.125 21.6016C19.9375 21.6016 19.7539 21.5684 19.5742 21.502L19.4431 21.4445C19.3157 21.3793 19.1992 21.291 19.0938 21.1797L14.049 16.146L13.8419 16.2865C13.4278 16.5538 12.9889 16.7865 12.5254 16.9844C11.4824 17.4297 10.3672 17.6523 9.17969 17.6523C7.99219 17.6523 6.87695 17.4297 5.83398 16.9844C4.79102 16.5391 3.87305 15.918 3.08008 15.1211C2.28711 14.3242 1.66797 13.4062 1.22266 12.3672C0.777344 11.3281 0.554688 10.2148 0.554688 9.02734C0.554688 7.83203 0.777344 6.71484 1.22266 5.67578C1.66797 4.63672 2.28906 3.7207 3.08594 2.92773C3.88281 2.13477 4.80078 1.51367 5.83984 1.06445C6.87891 0.615234 7.99219 0.390625 9.17969 0.390625C10.3672 0.390625 11.4824 0.615234 12.5254 1.06445C13.5684 1.51367 14.4863 2.13477 15.2793 2.92773C16.0723 3.7207 16.6914 4.63867 17.1367 5.68164C17.582 6.72461 17.8047 7.83984 17.8047 9.02734C17.8047 10.2148 17.582 11.3281 17.1367 12.3672L16.9818 12.7091C16.7668 13.1589 16.5173 13.5848 16.2336 13.9868L16.148 14.102L21.1562 19.1289C21.2969 19.2617 21.4004 19.418 21.4668 19.5977C21.5332 19.7773 21.5664 19.9609 21.5664 20.1484C21.5664 20.4219 21.5059 20.6699 21.3848 20.8926C21.2637 21.1152 21.0938 21.2891 20.875 21.4141ZM6.6543 15.0449C7.44727 15.3848 8.28906 15.5547 9.17969 15.5547C10.0781 15.5547 10.9219 15.3848 11.7109 15.0449C12.5 14.7051 13.1934 14.2344 13.791 13.6328C14.3887 13.0312 14.8574 12.3379 15.1973 11.5527C15.5371 10.7676 15.707 9.92578 15.707 9.02734C15.707 8.13672 15.5371 7.29688 15.1973 6.50781C14.8574 5.71875 14.3887 5.02344 13.791 4.42188C13.1934 3.82031 12.5 3.34766 11.7109 3.00391C10.9219 2.66016 10.0781 2.48828 9.17969 2.48828C8.28906 2.48828 7.44727 2.66016 6.6543 3.00391C5.86133 3.34766 5.16602 3.82031 4.56836 4.42188C3.9707 5.02344 3.50195 5.71875 3.16211 6.50781C2.82227 7.29688 2.65234 8.13672 2.65234 9.02734C2.65234 9.92578 2.82227 10.7676 3.16211 11.5527C3.50195 12.3379 3.9707 13.0312 4.56836 13.6328C5.16602 14.2344 5.86133 14.7051 6.6543 15.0449Z" fill="#FBFBFB"/>
</svg>
